# xmcd
#
# Track frame offsets:
# 150
# 15038
# 29701
# 44989
# 57725
# 70415
# 88904
# 102808
# 119400
# 134656
# 151196
# 166295
# 184089
#
# Disc length: 2601 seconds
#
#
# Revision: 0
# Processed by: cddbd v1.5.2PL0 Copyright (c) Steve Scherf et al.
# Submitted via: FreeRIP 2.96 
#
DISCID=bb0a270d
DTITLE=Patti Page - Best Country Songs
DYEAR=1900
DGENRE=Country
TTITLE0=Tennessee Waltz
TTITLE1=Crazy Ole Moon
TTITLE2=Sing You Back to Me
TTITLE3=Money, Marbles and Chalk
TTITLE4=Home Sweet Oklahoma (feat. Vince Gill)
TTITLE5=You Don't Know Me
TTITLE6=Mockin' Bird Hill
TTITLE7=Little Did She Know
TTITLE8=Except for Monday
TTITLE9=You Needed Me
TTITLE10=Family Love
TTITLE11=If I Had Only Known
TTITLE12=How Much Is That Doggie in the Window
EXTD=
EXTT0=
EXTT1=
EXTT2=
EXTT3=
EXTT4=
EXTT5=
EXTT6=
EXTT7=
EXTT8=
EXTT9=
EXTT10=
EXTT11=
EXTT12=
PLAYORDER=
